<svg width="211" height="94" viewBox="0 0 211 94" fill="none" xmlns="http://www.w3.org/2000/svg">
<ellipse cx="104.5" cy="47" rx="104.5" ry="47" fill="#A9A9A9"/>
<path d="M37.112 38.24L35.564 62L32.324 62.54L20.66 43.244H20.372L20.48 62L16.88 62.18L17.852 38.6L26.564 38.06L32.864 56.024H33.152L33.512 38.42L37.112 38.24ZM58.0418 62L43.9658 62.324L42.2738 38.6L58.1498 38.096L58.0418 40.508L50.4458 41.408L49.5098 48.86L57.1778 48.788L57.3578 52.028L49.2218 51.416L48.2498 59.444L58.1858 58.292L58.0418 62ZM70.0107 38.06L72.4947 56.204H72.7827L78.2187 39.14L81.0987 40.004L84.8427 56.348H85.1307L89.2707 38.06L92.5107 38.924L86.1387 62L82.8987 62.54L77.3907 50.408L73.2867 62L69.3267 62.54L61.7667 39.032L70.0107 38.06ZM107.445 48.788V52.136L96.4653 53.828L96.6453 48.788H107.445ZM111.741 46.16C111.741 42.776 113.541 39.656 117.141 36.8L123.729 41.192C120.753 43.064 119.265 45.044 119.265 47.132C119.265 48.02 119.565 48.956 120.165 49.94C120.765 50.924 121.365 51.896 121.965 52.856C122.589 53.816 122.901 54.716 122.901 55.556C122.901 59.036 120.501 61.724 115.701 63.62L113.973 61.28C115.149 60.632 115.965 60.008 116.421 59.408C116.877 58.808 117.105 58.148 117.105 57.428C117.105 56.708 116.817 55.904 116.241 55.016C115.689 54.104 115.077 53.276 114.405 52.532C113.757 51.788 113.145 50.84 112.569 49.688C112.017 48.536 111.741 47.36 111.741 46.16ZM143.948 62.576L143.12 53.144L135.524 53.756L134.66 62.144L131.06 62.504L129.008 38.6L137.216 38.06L135.848 50.984L142.94 51.056L141.896 38.672L150.104 38.132L147.548 62.216L143.948 62.576ZM172.552 54.548C172.552 56.012 172.432 57.236 172.192 58.22C171.952 59.18 171.52 60.032 170.896 60.776C169.696 62.168 167.368 62.864 163.912 62.864C160.48 62.864 157.816 62.084 155.92 60.524C155.512 58.508 155.308 56.516 155.308 54.548C155.308 50.564 156.052 47 157.54 43.856C159.052 40.712 160.804 38.48 162.796 37.16C165.604 38.312 167.932 40.472 169.78 43.64C171.628 46.784 172.552 50.42 172.552 54.548ZM168.196 52.928C168.196 49.232 167.584 46.064 166.36 43.424C164.032 45.56 162.208 48.032 160.888 50.84C159.592 53.648 158.944 56.408 158.944 59.12C159.76 59.288 160.732 59.372 161.86 59.372C164.068 59.372 165.964 59.096 167.548 58.544C167.98 56.672 168.196 54.8 168.196 52.928ZM177.876 39.32C181.236 38.24 184.632 37.7 188.064 37.7C191.496 37.7 194.136 38.276 195.984 39.428C196.416 40.724 196.632 41.96 196.632 43.136C196.632 45.896 195.492 48.212 193.212 50.084C190.932 51.932 187.992 53.264 184.392 54.08L183.528 62.144L179.928 62.504L177.876 39.32ZM189.684 44.18C189.684 42.332 188.928 40.952 187.416 40.04C186.984 40.04 186.456 40.124 185.832 40.292L184.644 51.632C186.204 50.768 187.428 49.652 188.316 48.284C189.228 46.916 189.684 45.548 189.684 44.18Z" fill="#F5F5DC"/>
</svg>
